<svg id="_x31__x2C_5" enable-background="new 0 0 24 24" height="512" viewBox="0 0 24 24" width="512" xmlns="http://www.w3.org/2000/svg"><g><path d="m12 16c-.414 0-.75-.336-.75-.75v-.407c0-1.009.538-1.918 1.37-2.317.556-.267 1.052-.971.825-1.883-.129-.519-.547-.957-1.04-1.088-.46-.124-.917-.036-1.285.247-.388.298-.62.777-.62 1.282 0 .414-.336.75-.75.75s-.75-.336-.75-.751c0-.968.451-1.893 1.206-2.472.735-.564 1.678-.75 2.587-.506 1.02.273 1.847 1.127 2.107 2.175.368 1.48-.303 2.959-1.631 3.597-.311.149-.519.537-.519.965v.407c0 .415-.336.751-.75.751z"/></g><g><path d="m21.25 23h-18.5c-1.517 0-2.75-1.233-2.75-2.75v-16.5c0-1.517 1.233-2.75 2.75-2.75h18.5c1.517 0 2.75 1.233 2.75 2.75v16.5c0 1.517-1.233 2.75-2.75 2.75zm-18.5-20.5c-.689 0-1.25.561-1.25 1.25v16.5c0 .689.561 1.25 1.25 1.25h18.5c.689 0 1.25-.561 1.25-1.25v-16.5c0-.689-.561-1.25-1.25-1.25z"/></g><g><path d="m23.25 6h-22.5c-.414 0-.75-.336-.75-.75s.336-.75.75-.75h22.5c.414 0 .75.336.75.75s-.336.75-.75.75z"/></g><g><circle cx="12" cy="17.75" r=".75"/></g></svg>